<svg id="Layer_1" data-name="Layer 1" xmlns="http://www.w3.org/2000/svg" viewBox="0 0 988 542"><defs><style>.cls-1,.cls-2,.cls-4,.cls-7{fill:#fff;}.cls-1,.cls-2{stroke:#87cde9;}.cls-1,.cls-2,.cls-4{stroke-linecap:round;stroke-linejoin:round;}.cls-1{stroke-width:1.5px;}.cls-2{stroke-width:2.02px;}.cls-11,.cls-13,.cls-15,.cls-16,.cls-18,.cls-19,.cls-20,.cls-21,.cls-22,.cls-3{fill:none;stroke-miterlimit:10;}.cls-3{stroke:#404041;}.cls-4{stroke:#0f9cd4;}.cls-15,.cls-16,.cls-18,.cls-19,.cls-21,.cls-22,.cls-4{stroke-width:2px;}.cls-5{fill:#3d2f34;}.cls-6{fill:#156fdb;}.cls-8{fill:#ff9e04;}.cls-9{fill:#fcfcfc;}.cls-10{fill:#d14d27;}.cls-11,.cls-13,.cls-20{stroke:#231f20;}.cls-11{stroke-width:2.2px;}.cls-12{fill:#231f20;}.cls-13{stroke-width:2.19px;}.cls-14{fill:#f7931e;}.cls-15,.cls-16,.cls-18,.cls-19,.cls-21,.cls-22{stroke:#050505;}.cls-16{stroke-dasharray:7.07 7.07;}.cls-17{fill:#050505;}.cls-18{stroke-dasharray:6.33 6.33;}.cls-19{stroke-dasharray:6.09 6.09;}.cls-20{stroke-width:2.14px;}.cls-21{stroke-dasharray:6.48 6.48;}.cls-22{stroke-dasharray:5.62 5.62;}</style></defs><title>refernce-architecture</title><rect class="cls-1" x="26.96" y="176" width="630.31" height="143.3" rx="15.68" ry="15.68"/><rect class="cls-1" x="26.96" y="16" width="630.31" height="143.3" rx="15.68" ry="15.68"/><rect class="cls-1" x="22.96" y="180" width="630.31" height="143.3" rx="15.68" ry="15.68"/><rect class="cls-1" x="22.96" y="20" width="630.31" height="143.3" rx="15.68" ry="15.68"/><rect class="cls-2" x="18.96" y="184" width="630.31" height="143.3" rx="15.68" ry="15.68"/><rect class="cls-3" x="459.8" y="189.31" width="184.64" height="132.52" rx="12" ry="12"/><rect class="cls-4" x="517.13" y="147.88" width="71.76" height="167.4" rx="10" ry="10" transform="translate(321.43 784.59) rotate(-90)"/><path class="cls-5" d="M550.6,224.46h.93l1.6,7.52c.29,1.38.59,2.77.88,4.15h.08c.3-1.38.64-2.77,1-4.15l2-7.52H558l2,7.52c.34,1.38.67,2.77,1,4.15h.08c.29-1.38.55-2.77.84-4.15l1.6-7.52h.88l-2.86,12.75h-1l-2.32-8.75c-.23-1-.46-1.87-.68-2.87h-.08c-.22,1-.47,1.87-.7,2.87l-2.29,8.75h-1Z"/><path class="cls-5" d="M566,232.59c0-3.11,1.94-4.9,4.17-4.9s4.17,1.79,4.17,4.9-1.94,4.86-4.17,4.86S566,235.66,566,232.59Zm7.44,0c0-2.45-1.39-4.14-3.27-4.14s-3.27,1.69-3.27,4.14,1.39,4.1,3.27,4.1S573.4,235,573.4,232.59Z"/><path class="cls-5" d="M577.09,227.92h.72l.1,1.74h0a3.22,3.22,0,0,1,2.64-2,1.93,1.93,0,0,1,.92.19l-.19.78a2.1,2.1,0,0,0-.84-.16c-.84,0-1.83.64-2.53,2.39v6.32h-.86Z"/><path class="cls-5" d="M583.23,223.29h.85v10.26h0l4.59-5.63h1l-3,3.68,3.53,5.61h-1l-3.09-5-2.08,2.44v2.53h-.85Z"/><path class="cls-5" d="M591.19,232.59c0-3,2-4.9,4-4.9s3.56,1.57,3.56,4.3a4.2,4.2,0,0,1,0,.7h-6.68c0,2.34,1.4,4,3.49,4a4.21,4.21,0,0,0,2.5-.83l.35.65a5.07,5.07,0,0,1-2.93.92C593.11,237.45,591.19,235.62,591.19,232.59ZM598,232c0-2.37-1.07-3.55-2.74-3.55s-3,1.33-3.19,3.55Z"/><path class="cls-5" d="M601.31,227.92H602l.09,1.74h0a3.22,3.22,0,0,1,2.64-2,2,2,0,0,1,.93.19l-.2.78a2.1,2.1,0,0,0-.84-.16c-.83,0-1.83.64-2.53,2.39v6.32h-.86Z"/><circle class="cls-6" cx="518.69" cy="231.37" r="25.78"/><polygon class="cls-7" points="542.6 250.25 531.51 250.25 514.35 218.44 498.55 247.94 504.91 247.94 516.33 226.49 517.63 228.86 506.26 250.2 494.78 250.2 514.34 213.68 532.85 247.99 538.86 247.99 523.23 218.41 521.24 222.06 519.94 219.72 523.29 213.7 542.6 250.25"/><polygon class="cls-7" points="525.53 243.49 512.16 243.49 513.35 241.24 524.32 241.24 525.53 243.49"/><rect class="cls-8" x="469.29" y="280.35" width="165.49" height="33.93" rx="12" ry="12"/><path class="cls-9" d="M508,292.92h3.08c2,0,3.45.72,3.45,2.77s-1.44,2.92-3.45,2.92h-1.83v4.16H508Zm2.9,4.67c1.54,0,2.38-.62,2.38-1.9s-.84-1.75-2.38-1.75h-1.65v3.65Zm-.06.67,1-.65,3,5.16h-1.42Z"/><path class="cls-9" d="M518.48,292.92h1.42l3.33,9.85H521.9l-1.72-5.5c-.35-1.1-.67-2.18-1-3.32h-.06c-.31,1.14-.62,2.22-1,3.32l-1.73,5.5h-1.28Zm-1.58,5.85h4.54v1H516.9Z"/><path class="cls-9" d="M524.55,292.92h1.51l1.89,5.26c.24.68.46,1.37.7,2.05h.06c.24-.68.44-1.37.68-2.05l1.86-5.26h1.51v9.85H531.6v-5.42c0-.86.09-2,.16-2.91h-.06l-.78,2.24-1.86,5.09h-.83l-1.86-5.09-.78-2.24h-.06c.06.87.16,2.05.16,2.91v5.42h-1.14Z"/><path class="cls-9" d="M541.27,292.12h.89l-4,13.05h-.89Z"/><path class="cls-9" d="M546,301.49l.75-.87a3.81,3.81,0,0,0,2.71,1.23c1.29,0,2.06-.65,2.06-1.6s-.71-1.33-1.64-1.74l-1.42-.62a2.78,2.78,0,0,1-2-2.53c0-1.51,1.31-2.62,3.1-2.62a4.08,4.08,0,0,1,2.9,1.22l-.67.81a3.13,3.13,0,0,0-2.23-.93c-1.11,0-1.84.56-1.84,1.44s.86,1.3,1.63,1.63l1.41.61a2.73,2.73,0,0,1,2,2.63c0,1.55-1.28,2.8-3.35,2.8A4.74,4.74,0,0,1,546,301.49Z"/><path class="cls-9" d="M553.79,301.49l.75-.87a3.84,3.84,0,0,0,2.72,1.23c1.29,0,2-.65,2-1.6s-.71-1.33-1.64-1.74l-1.41-.62a2.78,2.78,0,0,1-2-2.53c0-1.51,1.32-2.62,3.1-2.62a4.08,4.08,0,0,1,2.9,1.22l-.66.81a3.16,3.16,0,0,0-2.24-.93c-1.1,0-1.83.56-1.83,1.44s.86,1.3,1.63,1.63l1.4.61a2.74,2.74,0,0,1,2,2.63c0,1.55-1.29,2.8-3.36,2.8A4.74,4.74,0,0,1,553.79,301.49Z"/><path class="cls-9" d="M562.51,292.92H565c3,0,4.65,1.76,4.65,4.89s-1.62,5-4.59,5h-2.52Zm2.37,8.82c2.3,0,3.45-1.44,3.45-3.93s-1.15-3.86-3.45-3.86h-1.12v7.79Z"/><path class="cls-9" d="M577.55,292.12h.9l-4,13.05h-.89Z"/><path class="cls-9" d="M583,292.92h1.25V297h4.58v-4.12h1.25v9.85h-1.25v-4.63h-4.58v4.63H583Z"/><path class="cls-9" d="M592.77,292.92h2.47c3,0,4.65,1.76,4.65,4.89s-1.63,5-4.6,5h-2.52Zm2.37,8.82c2.3,0,3.45-1.44,3.45-3.93s-1.15-3.86-3.45-3.86H594v7.79Z"/><path class="cls-9" d="M602,292.92h2.47c3,0,4.65,1.76,4.65,4.89s-1.63,5-4.6,5H602Zm2.37,8.82c2.3,0,3.45-1.44,3.45-3.93s-1.15-3.86-3.45-3.86h-1.11v7.79Z"/><rect class="cls-2" x="18.96" y="24" width="630.31" height="143.3" rx="15.68" ry="15.68"/><rect class="cls-3" x="459.8" y="29.31" width="184.64" height="132.52" rx="12" ry="12"/><rect class="cls-4" x="294.36" y="7.11" width="71.76" height="167.4" rx="10" ry="10" transform="translate(239.43 421.05) rotate(-90)"/><path class="cls-5" d="M333.36,90.05c0-4,2.2-6.59,5.44-6.59A4.39,4.39,0,0,1,342.12,85l-.52.59a3.65,3.65,0,0,0-2.79-1.31c-2.79,0-4.52,2.23-4.52,5.76s1.71,5.84,4.45,5.84A4.1,4.1,0,0,0,342,94.3l.52.56a4.72,4.72,0,0,1-3.79,1.82C335.55,96.68,333.36,94.1,333.36,90.05Z"/><path class="cls-5" d="M345,95.2V82.53h.86V95.32c0,.41.17.6.4.6a1.9,1.9,0,0,0,.35,0l.14.69a1.88,1.88,0,0,1-.61.1C345.39,96.68,345,96.22,345,95.2Z"/><path class="cls-5" d="M349.25,84.15a.78.78,0,0,1,1.56,0,.78.78,0,0,1-1.56,0Zm.34,3h.85v9.29h-.85Z"/><path class="cls-5" d="M353.23,91.82c0-3,2-4.9,4-4.9s3.56,1.57,3.56,4.3a4.12,4.12,0,0,1,0,.7h-6.68c0,2.34,1.4,4,3.49,4a4.2,4.2,0,0,0,2.5-.82l.35.65a5.14,5.14,0,0,1-2.93.91C355.15,96.68,353.23,94.86,353.23,91.82Zm6.8-.6c0-2.38-1.07-3.56-2.74-3.56s-3,1.33-3.19,3.56Z"/><path class="cls-5" d="M363.35,87.16h.73l.09,1.44h0a4.56,4.56,0,0,1,3.2-1.68c1.92,0,2.81,1.17,2.81,3.57v6h-.86V90.6c0-2-.62-2.91-2.11-2.91-1.11,0-1.91.59-3,1.75v7h-.86Z"/><path class="cls-5" d="M373.86,93.88v-6h-1.45v-.66l1.47-.08.11-2.69h.72v2.69h2.7v.74h-2.7v6c0,1.19.3,2,1.58,2a3.3,3.3,0,0,0,1.17-.29l.22.69a5.34,5.34,0,0,1-1.52.35C374.38,96.68,373.86,95.55,373.86,93.88Z"/><circle class="cls-6" cx="295.93" cy="90.6" r="25.78"/><polygon class="cls-7" points="319.84 109.48 308.74 109.48 291.58 77.67 275.78 107.17 282.14 107.17 293.56 85.72 294.86 88.09 283.49 109.43 272.02 109.43 291.57 72.91 310.09 107.23 316.1 107.23 300.47 77.64 298.48 81.29 297.18 78.95 300.52 72.93 319.84 109.48"/><polygon class="cls-7" points="302.76 102.73 289.4 102.73 290.58 100.47 301.56 100.47 302.76 102.73"/><rect class="cls-4" x="294.36" y="300.78" width="71.76" height="167.4" rx="10" ry="10" transform="translate(-54.24 714.72) rotate(-90)"/><path class="cls-5" d="M331,377.36h1.27l2.66,7.48c.33.94.67,1.89,1,2.84H336c.34-.95.64-1.9,1-2.84l2.66-7.48h1.26v12.75h-.86v-8.38c0-1,.06-2.38.11-3.44h-.08l-1,2.84-2.75,7.59h-.77l-2.76-7.59-1-2.84h-.08c0,1.06.11,2.41.11,3.44v8.38H331Z"/><path class="cls-5" d="M343.91,387.8c0-2.06,1.86-3.05,6-3.5,0-1.43-.37-3-2.2-3a5.14,5.14,0,0,0-3,1.09l-.39-.63a6.22,6.22,0,0,1,3.46-1.21c2.2,0,2.94,1.6,2.94,3.59v5.93H350l-.1-1.2h0a5.52,5.52,0,0,1-3.3,1.44A2.44,2.44,0,0,1,343.91,387.8Zm6,.31V385c-3.82.44-5.12,1.32-5.12,2.81a1.74,1.74,0,0,0,2,1.84A4.88,4.88,0,0,0,349.91,388.11Z"/><path class="cls-5" d="M352.92,389.06l.5-.62a4.27,4.27,0,0,0,2.95,1.17c1.46,0,2.22-.85,2.22-1.83,0-1.16-1.2-1.68-2.27-2.06-1.4-.5-3-1.07-3-2.66,0-1.34,1.06-2.47,3-2.47a4.37,4.37,0,0,1,2.66,1l-.47.62a3.5,3.5,0,0,0-2.21-.85c-1.45,0-2.11.84-2.11,1.69,0,1.06,1.1,1.47,2.2,1.88,1.44.55,3,1,3,2.84,0,1.4-1.12,2.62-3.13,2.62A5.31,5.31,0,0,1,352.92,389.06Z"/><path class="cls-5" d="M361.75,387.55v-6H360.3v-.67l1.47-.08.11-2.69h.73v2.69h2.69v.75h-2.69v6c0,1.19.29,2,1.58,2a3.32,3.32,0,0,0,1.16-.3l.22.7a5.28,5.28,0,0,1-1.51.35C362.27,390.35,361.75,389.21,361.75,387.55Z"/><path class="cls-5" d="M366.57,385.49c0-3,2-4.9,4.06-4.9s3.55,1.57,3.55,4.3a4.2,4.2,0,0,1-.05.7h-6.68c0,2.34,1.41,4,3.5,4a4.21,4.21,0,0,0,2.5-.83l.35.65a5.07,5.07,0,0,1-2.93.92C368.5,390.35,366.57,388.52,366.57,385.49Zm6.81-.61c0-2.37-1.08-3.55-2.75-3.55s-3,1.33-3.18,3.55Z"/><path class="cls-5" d="M376.7,380.82h.72l.1,1.74h0a3.22,3.22,0,0,1,2.64-2,1.93,1.93,0,0,1,.92.19l-.19.78a2.1,2.1,0,0,0-.84-.16c-.84,0-1.83.64-2.54,2.39v6.32h-.85Z"/><circle class="cls-6" cx="295.93" cy="384.27" r="25.78"/><polygon class="cls-7" points="319.84 403.15 308.74 403.15 291.58 371.33 275.78 400.84 282.14 400.84 293.56 379.39 294.86 381.76 283.49 403.1 272.02 403.1 291.57 366.58 310.09 400.89 316.1 400.89 300.47 371.31 298.48 374.96 297.18 372.62 300.52 366.6 319.84 403.15"/><polygon class="cls-7" points="302.76 396.39 289.4 396.39 290.58 394.14 301.56 394.14 302.76 396.39"/><rect class="cls-4" x="246.54" y="434.93" width="167.4" height="71.76" rx="10" ry="10"/><path class="cls-5" d="M269.44,474.93l.57-.61a5,5,0,0,0,3.74,1.72c1.95,0,3.18-1,3.18-2.56s-1-2.1-2.3-2.67L272.7,470c-1.11-.49-2.59-1.28-2.59-3.17s1.59-3.15,3.71-3.15a4.88,4.88,0,0,1,3.55,1.53l-.51.59a4.09,4.09,0,0,0-3-1.31c-1.69,0-2.82.9-2.82,2.28s1.28,2,2.21,2.46l1.93.86c1.43.64,2.68,1.43,2.68,3.38s-1.6,3.43-4.07,3.43A5.6,5.6,0,0,1,269.44,474.93Z"/><path class="cls-5" d="M280.21,474.05v-6h-1.45v-.66l1.47-.08.11-2.69h.73v2.69h2.69v.74h-2.69v6.05c0,1.18.3,2,1.58,2a3.25,3.25,0,0,0,1.16-.29l.23.69a5.41,5.41,0,0,1-1.52.35C280.74,476.85,280.21,475.72,280.21,474.05Z"/><path class="cls-5" d="M284.94,474.3c0-2.06,1.86-3,6-3.5,0-1.43-.36-3-2.19-3a5.07,5.07,0,0,0-3,1.1l-.39-.64a6.26,6.26,0,0,1,3.45-1.21c2.21,0,3,1.6,3,3.59v5.94h-.72l-.1-1.21h0a5.46,5.46,0,0,1-3.3,1.44A2.43,2.43,0,0,1,284.94,474.3Zm6,.31v-3.16c-3.81.44-5.12,1.33-5.12,2.81a1.75,1.75,0,0,0,2,1.85A4.88,4.88,0,0,0,290.93,474.61Z"/><path class="cls-5" d="M295.11,467.33h.72l.09,1.44H296a4.54,4.54,0,0,1,3.19-1.68c1.92,0,2.81,1.17,2.81,3.57v6h-.85v-5.85c0-2-.62-2.91-2.12-2.91-1.11,0-1.91.59-3,1.75v7h-.85Z"/><path class="cls-5" d="M304.62,472c0-3,1.91-4.9,4.12-4.9a4.25,4.25,0,0,1,2.8,1.15l0-1.71V462.7h.85v13.92h-.72l-.09-1.21h0a4.37,4.37,0,0,1-3,1.44C306.14,476.85,304.62,475.12,304.62,472Zm6.88,2.57v-5.51a3.92,3.92,0,0,0-2.71-1.2c-1.85,0-3.27,1.81-3.27,4.14s1.1,4.1,3.07,4.1A4.16,4.16,0,0,0,311.5,474.56Z"/><path class="cls-5" d="M316.77,475.68h0l-.09.94h-.72V462.7h.86v4l0,1.81a5.26,5.26,0,0,1,3.19-1.46c2.5,0,3.73,1.87,3.73,4.74,0,3.16-1.91,5-4.1,5A4.74,4.74,0,0,1,316.77,475.68Zm6-3.84c0-2.29-.82-4-3-4a4.81,4.81,0,0,0-3,1.53v5.52a4.41,4.41,0,0,0,2.73,1.19C321.4,476.09,322.76,474.36,322.76,471.84Z"/><path class="cls-5" d="M325.07,480.65l.2-.74a2.13,2.13,0,0,0,.76.16c1.13,0,1.9-1.05,2.38-2.47l.25-.81-3.81-9.46h.92l2.24,5.84c.31.78.67,1.78,1,2.6h.08c.3-.82.6-1.81.86-2.6l2-5.84h.87l-3.66,10.46c-.52,1.55-1.46,3.06-3.13,3.06A2.29,2.29,0,0,1,325.07,480.65Z"/><path class="cls-5" d="M338.8,463.87h1.26l2.66,7.48c.34.94.67,1.89,1,2.83h.08c.33-.94.63-1.89,1-2.83l2.65-7.48h1.26v12.75h-.86v-8.38c0-1,.07-2.38.12-3.45h-.08l-1,2.85-2.75,7.59h-.77l-2.77-7.59-1-2.85h-.07c.05,1.07.11,2.41.11,3.45v8.38h-.82Z"/><path class="cls-5" d="M351.7,474.3c0-2.06,1.86-3,6-3.5,0-1.43-.36-3-2.19-3a5,5,0,0,0-3,1.1l-.39-.64a6.23,6.23,0,0,1,3.45-1.21c2.2,0,2.95,1.6,2.95,3.59v5.94h-.73l-.09-1.21h0a5.46,5.46,0,0,1-3.3,1.44A2.43,2.43,0,0,1,351.7,474.3Zm6,.31v-3.16c-3.82.44-5.12,1.33-5.12,2.81a1.75,1.75,0,0,0,2,1.85A4.9,4.9,0,0,0,357.69,474.61Z"/><path class="cls-5" d="M360.71,475.56l.49-.62a4.3,4.3,0,0,0,3,1.18c1.46,0,2.22-.86,2.22-1.84,0-1.16-1.21-1.67-2.28-2.06-1.4-.5-3-1.07-3-2.65,0-1.34,1.06-2.48,3-2.48a4.37,4.37,0,0,1,2.65,1l-.46.61a3.54,3.54,0,0,0-2.22-.84c-1.45,0-2.1.83-2.1,1.69,0,1.06,1.09,1.46,2.2,1.88,1.44.54,3,1,3,2.83,0,1.4-1.12,2.62-3.13,2.62A5.28,5.28,0,0,1,360.71,475.56Z"/><path class="cls-5" d="M369.54,474.05v-6h-1.45v-.66l1.47-.08.1-2.69h.73v2.69h2.69v.74h-2.69v6.05c0,1.18.3,2,1.58,2a3.3,3.3,0,0,0,1.17-.29l.22.69a5.34,5.34,0,0,1-1.52.35C370.06,476.85,369.54,475.72,369.54,474.05Z"/><path class="cls-5" d="M374.36,472c0-3,2-4.9,4.05-4.9s3.56,1.57,3.56,4.3a4.12,4.12,0,0,1-.05.7h-6.68c0,2.34,1.4,4,3.5,4a4.17,4.17,0,0,0,2.49-.82l.35.65a5.11,5.11,0,0,1-2.92.91C376.28,476.85,374.36,475,374.36,472Zm6.8-.6c0-2.38-1.07-3.56-2.74-3.56s-3,1.33-3.19,3.56Z"/><path class="cls-5" d="M384.48,467.33h.73l.09,1.73h0a3.24,3.24,0,0,1,2.65-2,2,2,0,0,1,.92.2l-.2.77a2.09,2.09,0,0,0-.84-.15c-.83,0-1.82.63-2.53,2.39v6.32h-.86Z"/><rect class="cls-4" x="294.36" y="168.44" width="71.76" height="167.4" rx="10" ry="10" transform="translate(78.1 582.39) rotate(-90)"/><path class="cls-5" d="M333.36,251.38c0-4,2.2-6.58,5.44-6.58a4.42,4.42,0,0,1,3.32,1.52l-.52.6a3.62,3.62,0,0,0-2.79-1.31c-2.79,0-4.52,2.22-4.52,5.76s1.71,5.83,4.45,5.83a4.07,4.07,0,0,0,3.22-1.57l.52.56a4.72,4.72,0,0,1-3.79,1.82C335.55,258,333.36,255.43,333.36,251.38Z"/><path class="cls-5" d="M345,256.53V243.86h.86v12.79c0,.41.17.61.4.61a1.43,1.43,0,0,0,.35,0l.14.7a1.92,1.92,0,0,1-.61.09C345.39,258,345,257.55,345,256.53Z"/><path class="cls-5" d="M349.25,245.49a.78.78,0,0,1,1.56,0,.78.78,0,0,1-1.56,0Zm.34,3h.85v9.29h-.85Z"/><path class="cls-5" d="M353.23,253.15c0-3,2-4.89,4-4.89s3.56,1.56,3.56,4.3a4,4,0,0,1,0,.69h-6.68c0,2.35,1.4,4,3.49,4a4.2,4.2,0,0,0,2.5-.82l.35.65a5.07,5.07,0,0,1-2.93.91C355.15,258,353.23,256.19,353.23,253.15Zm6.8-.6c0-2.37-1.07-3.55-2.74-3.55s-3,1.33-3.19,3.55Z"/><path class="cls-5" d="M363.35,248.49h.73l.09,1.44h0a4.55,4.55,0,0,1,3.2-1.67c1.92,0,2.81,1.16,2.81,3.56v6h-.86v-5.85c0-2-.62-2.9-2.11-2.9-1.11,0-1.91.58-3,1.74v7h-.86Z"/><path class="cls-5" d="M373.86,255.21v-6h-1.45v-.67l1.47-.08.11-2.69h.72v2.69h2.7v.75h-2.7v6c0,1.18.3,2,1.58,2a3.32,3.32,0,0,0,1.17-.3l.22.69a5.34,5.34,0,0,1-1.52.35C374.38,258,373.86,256.88,373.86,255.21Z"/><circle class="cls-6" cx="295.93" cy="251.93" r="25.78"/><polygon class="cls-7" points="319.84 270.81 308.74 270.81 291.58 239 275.78 268.51 282.14 268.51 293.56 247.05 294.86 249.43 283.49 270.76 272.02 270.76 291.57 234.24 310.09 268.56 316.1 268.56 300.47 238.98 298.48 242.63 297.18 240.28 300.52 234.27 319.84 270.81"/><polygon class="cls-7" points="302.76 264.06 289.4 264.06 290.58 261.81 301.56 261.81 302.76 264.06"/><rect class="cls-4" x="84.36" y="7.11" width="71.76" height="167.4" rx="10" ry="10" transform="translate(29.43 211.05) rotate(-90)"/><path class="cls-10" d="M122.22,83.7h3.21c2.89,0,4.62.93,4.62,3.55S128.35,91,125.51,91h-2.4v5.49h-.89Zm3.06,6.51c2.61,0,3.85-.86,3.85-3s-1.29-2.8-3.92-2.8h-2.1v5.76Z"/><path class="cls-10" d="M132.74,87.16h.72l.09,1.73h0a3.23,3.23,0,0,1,2.64-2,1.93,1.93,0,0,1,.92.2l-.19.77a2.16,2.16,0,0,0-.84-.15c-.84,0-1.83.63-2.54,2.39v6.32h-.85Z"/><path class="cls-10" d="M137.9,91.82c0-3,2-4.9,4-4.9s3.56,1.57,3.56,4.3a4.12,4.12,0,0,1,0,.7h-6.68c0,2.34,1.4,4,3.5,4a4.17,4.17,0,0,0,2.49-.82l.36.65a5.17,5.17,0,0,1-2.93.91C139.83,96.68,137.9,94.86,137.9,91.82Zm6.8-.6c0-2.38-1.07-3.56-2.74-3.56s-3,1.33-3.18,3.56Z"/><path class="cls-10" d="M146.87,95.39l.49-.62a4.32,4.32,0,0,0,3,1.18c1.46,0,2.22-.86,2.22-1.84,0-1.16-1.21-1.67-2.28-2.06-1.4-.5-3-1.07-3-2.65,0-1.34,1.06-2.48,3-2.48a4.37,4.37,0,0,1,2.65,1l-.46.61a3.52,3.52,0,0,0-2.22-.85c-1.44,0-2.1.84-2.1,1.7,0,1.06,1.09,1.46,2.2,1.88,1.44.54,3,1,3,2.83,0,1.4-1.12,2.62-3.14,2.62A5.3,5.3,0,0,1,146.87,95.39Z"/><path class="cls-10" d="M155.7,93.88v-6h-1.45v-.66l1.47-.08.11-2.69h.72v2.69h2.7v.74h-2.7v6c0,1.19.3,2,1.58,2a3.3,3.3,0,0,0,1.17-.29l.22.69a5.34,5.34,0,0,1-1.52.35C156.22,96.68,155.7,95.55,155.7,93.88Z"/><path class="cls-10" d="M160.52,91.82c0-3.11,1.94-4.9,4.17-4.9s4.17,1.79,4.17,4.9-1.93,4.86-4.17,4.86S160.52,94.89,160.52,91.82Zm7.45,0c0-2.45-1.4-4.14-3.28-4.14s-3.27,1.69-3.27,4.14,1.4,4.1,3.27,4.1S168,94.26,168,91.82Z"/><circle class="cls-10" cx="85.14" cy="73.14" r="2.12"/><circle class="cls-10" cx="90.95" cy="78.96" r="2.35"/><circle class="cls-10" cx="96.76" cy="84.77" r="2.58" transform="translate(-31.6 93.25) rotate(-45)"/><circle class="cls-10" cx="102.57" cy="90.58" r="2.82" transform="translate(-34.01 99.06) rotate(-45)"/><circle class="cls-10" cx="73.51" cy="73.14" r="1.88"/><circle class="cls-10" cx="79.33" cy="78.96" r="2.12"/><circle class="cls-10" cx="85.14" cy="84.77" r="2.35"/><circle class="cls-10" cx="90.95" cy="90.58" r="2.58"/><circle class="cls-10" cx="96.76" cy="96.4" r="2.82" transform="translate(-39.82 96.66) rotate(-45)"/><circle class="cls-10" cx="61.9" cy="73.15" r="1.65"/><circle class="cls-10" cx="67.7" cy="78.95" r="1.88"/><circle class="cls-10" cx="73.52" cy="84.77" r="2.12"/><circle class="cls-10" cx="79.33" cy="90.58" r="2.35"/><circle class="cls-10" cx="85.14" cy="96.4" r="2.58" transform="translate(-43.22 88.44) rotate(-45)"/><circle class="cls-10" cx="90.95" cy="102.2" r="2.82" transform="translate(-45.63 94.24) rotate(-45)"/><circle class="cls-10" cx="73.51" cy="96.39" r="1.88"/><circle class="cls-10" cx="67.7" cy="102.2" r="1.88"/><circle class="cls-10" cx="61.89" cy="108.01" r="1.88"/><circle class="cls-10" cx="73.51" cy="108.01" r="1.88"/><circle class="cls-10" cx="85.14" cy="108.02" r="1.88"/><circle class="cls-10" cx="79.32" cy="102.2" r="1.88"/><rect class="cls-4" x="86.97" y="166.95" width="71.76" height="167.4" rx="10" ry="10" transform="translate(-127.8 373.5) rotate(-90)"/><g id="g4163"><g id="g4165"><path id="path4167" class="cls-10" d="M161,245.78a3.52,3.52,0,0,0-.16-.33c-1.12-2.13-2.23-4.26-3.36-6.38a.39.39,0,0,1,.05-.52q2.67-3.12,5.33-6.26A.53.53,0,0,0,163,232l-1.55.41L155,234.13c-.2.06-.29,0-.39-.17L151,227.85a1,1,0,0,0-.27-.3l-.3,1.63-1,5.76c0,.21-.09.42-.11.63s-.11.27-.29.32l-7.61,2.41a.71.71,0,0,0-.33.19l6.24,2.48a1,1,0,0,1-.18.14l-3.88,2.52a.45.45,0,0,1-.46,0c-1.54-.7-3.1-1.39-4.65-2.08a4.71,4.71,0,0,1-1.8-1.32,2.38,2.38,0,0,1,.58-3.81,6.78,6.78,0,0,1,1.57-.72c2.48-.81,5-1.59,7.47-2.37a.44.44,0,0,0,.34-.39c.33-1.92.68-3.84,1-5.76a10.21,10.21,0,0,1,.79-3,5,5,0,0,1,.69-1,2.22,2.22,0,0,1,3.42-.1,6.32,6.32,0,0,1,.91,1.2c1.16,1.88,2.29,3.77,3.42,5.66a.37.37,0,0,0,.5.2l8.34-2.21a3.93,3.93,0,0,1,1.74-.1,1.72,1.72,0,0,1,1.41,2.46,4.89,4.89,0,0,1-.92,1.49l-5.83,6.84a.4.4,0,0,0-.05.53l3.47,6.57a3.56,3.56,0,0,1,.49,1.68,2.69,2.69,0,0,1-2.35,2.69,4.88,4.88,0,0,1-2.18-.27l-5.24-1.6a.29.29,0,0,1-.25-.28c-.2-1.23-.42-2.46-.63-3.68a.42.42,0,0,1,0-.15l6,1.66"/><path id="path4169" class="cls-10" d="M157.62,263.67h-4.71a.45.45,0,0,1-.44-.24q-2.79-4.24-5.6-8.49l-.23-.32c-.4,3.05-.79,6-1.18,9h-4.12c0-.4.09-.79.14-1.17q.61-4.61,1.21-9.2c.39-2.93.77-5.86,1.16-8.79a.39.39,0,0,1,.14-.25l4.26-2.75s.05,0,.12,0c-.43,3.28-.85,6.53-1.28,9.78l0,0c2.23-2.47,4.46-4.94,6.73-7.47.07.38.13.71.18,1,.16.93.31,1.87.49,2.8a.46.46,0,0,1-.14.43c-1.45,1.51-2.88,3-4.32,4.53l-.19.22a2.39,2.39,0,0,0,.13.21l7.44,10.43c0,.06.11.11.16.17v.05"/><path id="path4171" class="cls-10" d="M108.86,254.63a9.59,9.59,0,0,0-.25-1.23,4.26,4.26,0,0,0-5.13-2.77,5.71,5.71,0,0,0-4.5,5.05,4.1,4.1,0,0,0,2.69,4.35,4.85,4.85,0,0,0,4.3-.49A5.72,5.72,0,0,0,108.86,254.63ZM98,262.53c-.12.92-.24,1.78-.35,2.64l-.45,3.44c0,.13-.05.19-.2.19H93.59l-.11,0,.21-1.63c.25-1.9.49-3.8.75-5.71.29-2.17.52-4.35.89-6.51A10.19,10.19,0,0,1,103,247a8,8,0,0,1,6.24,1,7,7,0,0,1,3.28,5.3,9.33,9.33,0,0,1-3.09,8,9.56,9.56,0,0,1-5.34,2.67,7.87,7.87,0,0,1-5.9-1.28l-.25-.16"/><path id="path4173" class="cls-10" d="M96.14,244.36l-3.72,2.76c-.19-.31-.37-.62-.58-.91a2.87,2.87,0,0,0-2.15-1.37,2.43,2.43,0,0,0-2,.8,1.42,1.42,0,0,0-.1,1.87c.5.66,1,1.28,1.61,1.89.93,1,1.9,2,2.82,3a6.31,6.31,0,0,1,1.72,3.21,6.64,6.64,0,0,1-.76,4.24,8,8,0,0,1-6.1,4.28,7.84,7.84,0,0,1-3.57-.19A5.22,5.22,0,0,1,79.94,261c-.24-.5-.43-1-.65-1.59,1.36-.73,2.68-1.44,4-2.15,0,.11.08.2.12.29a13.57,13.57,0,0,0,.7,1.37,2.73,2.73,0,0,0,3.58,1,3.94,3.94,0,0,0,1-.64,2.1,2.1,0,0,0,.4-2.88,14.18,14.18,0,0,0-1.31-1.59c-1.1-1.22-2.24-2.41-3.32-3.65a5.76,5.76,0,0,1-1.4-3,5.18,5.18,0,0,1,.73-3.49,7.56,7.56,0,0,1,7.09-3.87,5.57,5.57,0,0,1,4.29,2.27c.32.41.63.83,1,1.28"/><path id="path4175" class="cls-10" d="M126.23,258.43c-.2,1.58-.4,3.08-.6,4.58a.29.29,0,0,1-.14.21c-3.06,1.42-7.1,1.22-9.62-1.64a7.37,7.37,0,0,1-1.83-5.39,10.16,10.16,0,0,1,8.74-9.37,7.49,7.49,0,0,1,6.95,2.52,7,7,0,0,1,1.75,5c0,1.26-.25,2.51-.41,3.75-.22,1.77-.46,3.53-.69,5.3,0,.06,0,.12,0,.2h-3.67l.15-1.19c.26-2,.56-4.08.79-6.12a6.62,6.62,0,0,0-.53-3.72,3.61,3.61,0,0,0-3-2.06A5.74,5.74,0,0,0,118,255a4.22,4.22,0,0,0,1.69,4.56,4.6,4.6,0,0,0,4.5.34,5.78,5.78,0,0,0,2.09-1.47"/><path id="path4177" class="cls-10" d="M141.68,247.18c-.17,1.27-.33,2.53-.5,3.81-.78,0-1.54,0-2.3,0a1.44,1.44,0,0,0-1.36,1,4.23,4.23,0,0,0-.13.71q-.58,4.38-1.15,8.76c-.1.73-.19,1.47-.29,2.22h-3.82q.1-.84.21-1.65l.75-5.68c.22-1.63.41-3.27.67-4.91a5.31,5.31,0,0,1,4.72-4.22c1.05-.05,2.11,0,3.2,0"/></g></g><path class="cls-5" d="M85.14,137.88h.69l3.48,9.89h-.73l-2-5.82c-.4-1.18-.75-2.21-1.1-3.42h-.06c-.34,1.21-.69,2.24-1.09,3.42l-2,5.82h-.69Zm-1.89,5.92h4.43v.57H83.25Z"/><path class="cls-5" d="M90.88,137.88h2.49c2.24,0,3.58.73,3.58,2.76s-1.32,2.88-3.52,2.88H91.57v4.25h-.69Zm2.37,5.05c2,0,3-.67,3-2.29s-1-2.18-3-2.18H91.57v4.47Z"/><path class="cls-5" d="M99.11,137.88h2.49c2.23,0,3.58.73,3.58,2.76s-1.32,2.88-3.52,2.88H99.8v4.25h-.69Zm2.37,5.05c2,0,3-.67,3-2.29s-1-2.18-3-2.18H99.8v4.47Z"/><path class="cls-5" d="M107.33,137.88H108v9.29h4.56v.6h-5.25Z"/><path class="cls-5" d="M114.34,137.88H115v9.89h-.69Z"/><path class="cls-5" d="M117.31,142.8c0-3.13,1.71-5.1,4.22-5.1a3.41,3.41,0,0,1,2.57,1.18l-.4.47a2.81,2.81,0,0,0-2.16-1c-2.17,0-3.51,1.72-3.51,4.47s1.33,4.52,3.45,4.52a3.19,3.19,0,0,0,2.5-1.22l.41.43a3.68,3.68,0,0,1-2.94,1.42C119,148,117.31,146,117.31,142.8Z"/><path class="cls-5" d="M128.56,137.88h.69l3.48,9.89H132L130,142c-.4-1.18-.75-2.21-1.09-3.42h-.06c-.35,1.21-.7,2.24-1.1,3.42l-2,5.82h-.7Zm-1.9,5.92h4.44v.57h-4.44Z"/><path class="cls-5" d="M135.78,138.48h-3.15v-.6h7v.6h-3.14v9.29h-.69Z"/><path class="cls-5" d="M141.51,137.88h.69v9.89h-.69Z"/><path class="cls-5" d="M144.48,142.79c0-3.13,1.7-5.09,4.07-5.09s4.07,2,4.07,5.09-1.69,5.16-4.07,5.16S144.48,145.92,144.48,142.79Zm7.42,0c0-2.74-1.34-4.46-3.35-4.46s-3.34,1.72-3.34,4.46,1.34,4.53,3.34,4.53S151.9,145.54,151.9,142.79Z"/><path class="cls-5" d="M154.91,137.88h.72l4.16,7,1.12,2H161c0-1-.08-1.93-.08-2.89v-6.06h.65v9.89h-.72l-4.16-7-1.12-2h-.06c0,1,.09,1.85.09,2.81v6.14h-.65Z"/><path class="cls-5" d="M82.9,296.64h.69l3.48,9.88h-.73l-2-5.81c-.4-1.18-.75-2.21-1.1-3.42h-.05c-.35,1.21-.7,2.24-1.1,3.42l-2,5.81h-.7ZM81,302.55h4.44v.58H81Z"/><path class="cls-5" d="M88.63,296.64h2.49c2.24,0,3.58.73,3.58,2.75s-1.32,2.88-3.52,2.88H89.32v4.25h-.69ZM91,301.69c2,0,3-.67,3-2.3s-1-2.17-3-2.17H89.32v4.47Z"/><path class="cls-5" d="M96.86,296.64h2.49c2.24,0,3.58.73,3.58,2.75s-1.32,2.88-3.52,2.88H97.55v4.25h-.69Zm2.38,5.05c2,0,3-.67,3-2.3s-1-2.17-3-2.17H97.55v4.47Z"/><path class="cls-5" d="M105.09,296.64h.69v9.29h4.55v.59h-5.24Z"/><path class="cls-5" d="M112.09,296.64h.69v9.88h-.69Z"/><path class="cls-5" d="M115.06,301.56c0-3.13,1.71-5.1,4.23-5.1a3.41,3.41,0,0,1,2.57,1.18l-.41.46a2.82,2.82,0,0,0-2.16-1c-2.16,0-3.5,1.72-3.5,4.46s1.32,4.53,3.45,4.53a3.19,3.19,0,0,0,2.5-1.22l.4.43a3.66,3.66,0,0,1-2.94,1.41C116.76,306.7,115.06,304.7,115.06,301.56Z"/><path class="cls-5" d="M126.31,296.64H127l3.48,9.88h-.73l-2-5.81c-.4-1.18-.75-2.21-1.1-3.42h-.06c-.35,1.21-.69,2.24-1.1,3.42l-2,5.81h-.69Zm-1.89,5.91h4.43v.58h-4.43Z"/><path class="cls-5" d="M133.53,297.23h-3.15v-.59h7v.59h-3.15v9.29h-.69Z"/><path class="cls-5" d="M139.27,296.64H140v9.88h-.69Z"/><path class="cls-5" d="M142.24,301.55c0-3.13,1.69-5.09,4.07-5.09s4.07,2,4.07,5.09-1.7,5.15-4.07,5.15S142.24,304.68,142.24,301.55Zm7.42,0c0-2.74-1.35-4.46-3.35-4.46s-3.35,1.72-3.35,4.46,1.34,4.53,3.35,4.53S149.66,304.29,149.66,301.55Z"/><path class="cls-5" d="M152.66,296.64h.72l4.16,7,1.12,2h.06c0-1-.09-1.92-.09-2.88v-6.06h.65v9.88h-.72l-4.16-7-1.12-2h-.06c0,.95.09,1.85.09,2.8v6.14h-.65Z"/><rect class="cls-4" x="517.13" y="-12.12" width="71.76" height="167.4" rx="10" ry="10" transform="translate(481.43 624.59) rotate(-90)"/><path class="cls-5" d="M550.6,64.46h.93l1.6,7.52c.29,1.38.59,2.77.88,4.15h.08c.3-1.38.64-2.77,1-4.15l2-7.52H558L560,72c.34,1.38.67,2.77,1,4.15h.08c.29-1.38.55-2.77.84-4.15l1.6-7.52h.88l-2.86,12.75h-1l-2.32-8.75c-.23-1-.46-1.87-.68-2.87h-.08c-.22,1-.47,1.87-.7,2.87l-2.29,8.75h-1Z"/><path class="cls-5" d="M566,72.59c0-3.11,1.94-4.9,4.17-4.9s4.17,1.79,4.17,4.9-1.94,4.86-4.17,4.86S566,75.66,566,72.59Zm7.44,0c0-2.45-1.39-4.14-3.27-4.14s-3.27,1.69-3.27,4.14,1.39,4.1,3.27,4.1S573.4,75,573.4,72.59Z"/><path class="cls-5" d="M577.09,67.92h.72l.1,1.74h0a3.22,3.22,0,0,1,2.64-2,1.93,1.93,0,0,1,.92.19l-.19.78a2.1,2.1,0,0,0-.84-.16c-.84,0-1.83.64-2.53,2.39v6.32h-.86Z"/><path class="cls-5" d="M583.23,63.29h.85V73.55h0l4.59-5.63h1l-3,3.68,3.53,5.61h-1l-3.09-5-2.08,2.44v2.53h-.85Z"/><path class="cls-5" d="M591.19,72.59c0-3,2-4.9,4-4.9s3.56,1.57,3.56,4.3a4.2,4.2,0,0,1,0,.7h-6.68c0,2.34,1.4,4,3.49,4a4.21,4.21,0,0,0,2.5-.83l.35.65a5.07,5.07,0,0,1-2.93.92C593.11,77.45,591.19,75.62,591.19,72.59ZM598,72c0-2.37-1.07-3.55-2.74-3.55s-3,1.33-3.19,3.55Z"/><path class="cls-5" d="M601.31,67.92H602l.09,1.74h0a3.22,3.22,0,0,1,2.64-2,2,2,0,0,1,.93.19l-.2.78a2.1,2.1,0,0,0-.84-.16c-.83,0-1.83.64-2.53,2.39v6.32h-.86Z"/><circle class="cls-6" cx="518.69" cy="71.37" r="25.78"/><polygon class="cls-7" points="542.6 90.25 531.51 90.25 514.35 58.44 498.55 87.94 504.91 87.94 516.33 66.49 517.63 68.86 506.26 90.2 494.78 90.2 514.34 53.68 532.85 87.99 538.86 87.99 523.23 58.41 521.24 62.06 519.94 59.72 523.29 53.7 542.6 90.25"/><polygon class="cls-7" points="525.53 83.49 512.16 83.49 513.35 81.24 524.32 81.24 525.53 83.49"/><rect class="cls-8" x="27.23" y="393.11" width="167.49" height="63.93" rx="12" ry="12"/><rect class="cls-8" x="469.29" y="120.35" width="165.49" height="33.93" rx="12" ry="12"/><path class="cls-9" d="M508,132.92h3.08c2,0,3.45.72,3.45,2.77s-1.44,2.92-3.45,2.92h-1.83v4.16H508Zm2.9,4.67c1.54,0,2.38-.62,2.38-1.9s-.84-1.75-2.38-1.75h-1.65v3.65Zm-.06.67,1-.65,3,5.16h-1.42Z"/><path class="cls-9" d="M518.48,132.92h1.42l3.33,9.85H521.9l-1.72-5.5c-.35-1.1-.67-2.18-1-3.32h-.06c-.31,1.14-.62,2.22-1,3.32l-1.73,5.5h-1.28Zm-1.58,5.85h4.54v1H516.9Z"/><path class="cls-9" d="M524.55,132.92h1.51l1.89,5.26c.24.68.46,1.37.7,2h.06c.24-.68.44-1.37.68-2l1.86-5.26h1.51v9.85H531.6v-5.42c0-.86.09-2,.16-2.91h-.06l-.78,2.24-1.86,5.09h-.83l-1.86-5.09-.78-2.24h-.06c.06.87.16,2.05.16,2.91v5.42h-1.14Z"/><path class="cls-9" d="M541.27,132.12h.89l-4,13h-.89Z"/><path class="cls-9" d="M546,141.49l.75-.87a3.81,3.81,0,0,0,2.71,1.23c1.29,0,2.06-.65,2.06-1.6s-.71-1.33-1.64-1.74l-1.42-.62a2.78,2.78,0,0,1-2-2.53c0-1.51,1.31-2.62,3.1-2.62a4.08,4.08,0,0,1,2.9,1.22l-.67.81a3.13,3.13,0,0,0-2.23-.93c-1.11,0-1.84.56-1.84,1.44s.86,1.3,1.63,1.63l1.41.61a2.73,2.73,0,0,1,2,2.63c0,1.55-1.28,2.8-3.35,2.8A4.74,4.74,0,0,1,546,141.49Z"/><path class="cls-9" d="M553.79,141.49l.75-.87a3.84,3.84,0,0,0,2.72,1.23c1.29,0,2-.65,2-1.6s-.71-1.33-1.64-1.74l-1.41-.62a2.78,2.78,0,0,1-2-2.53c0-1.51,1.32-2.62,3.1-2.62a4.08,4.08,0,0,1,2.9,1.22l-.66.81a3.16,3.16,0,0,0-2.24-.93c-1.1,0-1.83.56-1.83,1.44s.86,1.3,1.63,1.63l1.4.61a2.74,2.74,0,0,1,2,2.63c0,1.55-1.29,2.8-3.36,2.8A4.74,4.74,0,0,1,553.79,141.49Z"/><path class="cls-9" d="M562.51,132.92H565c3,0,4.65,1.76,4.65,4.89s-1.62,5-4.59,5h-2.52Zm2.37,8.82c2.3,0,3.45-1.44,3.45-3.93s-1.15-3.86-3.45-3.86h-1.12v7.79Z"/><path class="cls-9" d="M577.55,132.12h.9l-4,13h-.89Z"/><path class="cls-9" d="M583,132.92h1.25V137h4.58v-4.12h1.25v9.85h-1.25v-4.63h-4.58v4.63H583Z"/><path class="cls-9" d="M592.77,132.92h2.47c3,0,4.65,1.76,4.65,4.89s-1.63,5-4.6,5h-2.52Zm2.37,8.82c2.3,0,3.45-1.44,3.45-3.93s-1.15-3.86-3.45-3.86H594v7.79Z"/><path class="cls-9" d="M602,132.92h2.47c3,0,4.65,1.76,4.65,4.89s-1.63,5-4.6,5H602Zm2.37,8.82c2.3,0,3.45-1.44,3.45-3.93s-1.15-3.86-3.45-3.86h-1.11v7.79Z"/><path class="cls-7" d="M40.64,430.81l6.69-10.37H41.25v-1.37h8.08v1L42.64,430.4h6.75v1.37H40.64Z"/><path class="cls-7" d="M50.7,427.08c0-3.14,2.06-4.95,4.36-4.95s4.36,1.81,4.36,4.95S57.37,432,55.06,432,50.7,430.19,50.7,427.08Zm7.08,0c0-2.16-1.1-3.63-2.72-3.63s-2.71,1.47-2.71,3.63,1.09,3.59,2.71,3.59S57.78,429.23,57.78,427.08Z"/><path class="cls-7" d="M61.2,427.08c0-3.14,2-4.95,4.36-4.95s4.36,1.81,4.36,4.95S67.86,432,65.56,432,61.2,430.19,61.2,427.08Zm7.07,0c0-2.16-1.1-3.63-2.71-3.63s-2.72,1.47-2.72,3.63,1.1,3.59,2.72,3.59S68.27,429.23,68.27,427.08Z"/><path class="cls-7" d="M72.46,419.07h1.62v6.37h0l5.28-6.37h1.83l-4,4.84,4.59,7.86h-1.8l-3.79-6.6-2.18,2.58v4H72.46Z"/><path class="cls-7" d="M82.68,427.08c0-3.06,2.06-4.95,4.23-4.95,2.4,0,3.75,1.72,3.75,4.41a5.81,5.81,0,0,1-.07.91H84.25c.12,2,1.34,3.28,3.13,3.28a4.13,4.13,0,0,0,2.34-.75l.57,1a5.55,5.55,0,0,1-3.11,1C84.68,432,82.68,430.17,82.68,427.08Zm6.58-.77c0-1.89-.85-2.91-2.32-2.91-1.32,0-2.51,1.06-2.7,2.91Z"/><path class="cls-7" d="M92.27,427.08c0-3.06,2.07-4.95,4.23-4.95,2.4,0,3.75,1.72,3.75,4.41a4.81,4.81,0,0,1-.07.91H93.85A3.12,3.12,0,0,0,97,430.73a4.1,4.1,0,0,0,2.34-.75l.57,1a5.49,5.49,0,0,1-3.1,1C94.27,432,92.27,430.17,92.27,427.08Zm6.58-.77c0-1.89-.85-2.91-2.32-2.91s-2.5,1.06-2.7,2.91Z"/><path class="cls-7" d="M102.56,422.36h1.32l.13,1.09h.06a4.91,4.91,0,0,1,3-1.32c2.43,0,3.73,1.89,3.73,4.79,0,3.21-1.92,5.08-4.07,5.08a4.31,4.31,0,0,1-2.61-1.09l0,1.64v3.18h-1.6Zm6.59,4.58c0-2.08-.71-3.47-2.48-3.47a3.86,3.86,0,0,0-2.51,1.28v4.93a3.63,3.63,0,0,0,2.29,1C108,430.66,109.15,429.26,109.15,426.94Z"/><path class="cls-7" d="M112.6,427.08c0-3.06,2.07-4.95,4.23-4.95,2.4,0,3.75,1.72,3.75,4.41a5.81,5.81,0,0,1-.07.91h-6.34c.12,2,1.34,3.28,3.13,3.28a4.13,4.13,0,0,0,2.34-.75l.57,1a5.53,5.53,0,0,1-3.11,1C114.6,432,112.6,430.17,112.6,427.08Zm6.58-.77c0-1.89-.85-2.91-2.32-2.91-1.32,0-2.51,1.06-2.7,2.91Z"/><path class="cls-7" d="M122.89,422.36h1.32l.13,1.71h0a3.25,3.25,0,0,1,2.68-1.94,2.15,2.15,0,0,1,1,.19l-.29,1.4a2.73,2.73,0,0,0-.92-.16c-.79,0-1.74.58-2.38,2.17v6h-1.59Z"/><path class="cls-7" d="M137.26,418h1.15l-5.17,16.83h-1.15Z"/><path class="cls-7" d="M144.28,419.07h4c2.59,0,4.45.93,4.45,3.57s-1.86,3.76-4.45,3.76H145.9v5.37h-1.62Zm3.75,6c2,0,3.06-.8,3.06-2.45s-1.09-2.26-3.06-2.26H145.9v4.71Zm-.09.87,1.27-.84,3.87,6.65h-1.83Z"/><path class="cls-7" d="M154.49,429.33c0-2.05,1.77-3.08,5.78-3.51,0-1.21-.4-2.38-1.94-2.38a5.23,5.23,0,0,0-2.81,1l-.62-1.09a6.92,6.92,0,0,1,3.7-1.23c2.29,0,3.26,1.53,3.26,3.87v5.77h-1.31l-.14-1.13h0a5,5,0,0,1-3.11,1.36A2.56,2.56,0,0,1,154.49,429.33Zm5.78.14v-2.61c-3.15.38-4.22,1.15-4.22,2.35a1.45,1.45,0,0,0,1.65,1.51A3.89,3.89,0,0,0,160.27,429.47Z"/><path class="cls-7" d="M170.07,428.86v-5.2h-6.25v-1.21l1.35-.09h5l.19-2.64h1.33v2.64h2.55v1.3h-2.55v5.23c0,1.15.37,1.81,1.45,1.81a3,3,0,0,0,1.07-.25l.31,1.2a5.67,5.67,0,0,1-1.74.35C170.74,432,170.07,430.73,170.07,428.86Zm-5-8c0-1.92.87-3.13,2.76-3.13a4.16,4.16,0,0,1,1.56.32l-.34,1.22a2.5,2.5,0,0,0-1.06-.24c-.89,0-1.33.62-1.33,1.83v10.89H165.1Z"/><path class="cls-4" d="M965.57,54.67H779.25v47.82h.89a1.34,1.34,0,0,0-.5,1c0,5.07,41.57,9.17,92.84,9.17s92.83-4.1,92.83-9.17a1.34,1.34,0,0,0-.5-1h.76Z"/><ellipse class="cls-4" cx="872.48" cy="53.44" rx="92.83" ry="9.17"/><path class="cls-5" d="M833.82,83.5c0-5.21,2.83-8.47,6.78-8.47s6.78,3.27,6.78,8.47-2.82,8.59-6.78,8.59S833.82,88.72,833.82,83.5Zm12.36,0c0-4.56-2.23-7.43-5.58-7.43S835,78.94,835,83.5,837.26,91,840.6,91,846.18,88.07,846.18,83.5Z"/><path class="cls-5" d="M852.15,90.57h-.06L852,91.79h-.92v-18h1.1V79l0,2.34a6.84,6.84,0,0,1,4.13-1.88c3.21,0,4.8,2.41,4.8,6.12,0,4.07-2.46,6.48-5.28,6.48A6.09,6.09,0,0,1,852.15,90.57Zm7.72-4.95c0-3-1-5.15-3.82-5.15a6.24,6.24,0,0,0-3.9,2v7.11a5.72,5.72,0,0,0,3.54,1.55C858.12,91.11,859.87,88.87,859.87,85.62Z"/><path class="cls-5" d="M861.47,97.21l.26-.9a4.15,4.15,0,0,0,1.26.24c1.34,0,1.6-1.08,1.6-2.61V79.79h1.11V94c0,2.34-.83,3.5-2.69,3.5A4.25,4.25,0,0,1,861.47,97.21Zm2.69-21.29a1,1,0,0,1,2,0,1,1,0,0,1-2,0Z"/><path class="cls-5" d="M869.29,85.81c0-3.91,2.55-6.32,5.23-6.32,2.85,0,4.59,2,4.59,5.55a5.45,5.45,0,0,1-.06.9h-8.62c0,3,1.81,5.19,4.51,5.19a5.45,5.45,0,0,0,3.23-1.06l.45.84a6.54,6.54,0,0,1-3.78,1.18C871.78,92.09,869.29,89.73,869.29,85.81Zm8.79-.78c0-3.06-1.39-4.58-3.55-4.58s-3.86,1.72-4.11,4.58Z"/><path class="cls-5" d="M881.35,85.81c0-4,2.56-6.32,5.48-6.32A4.94,4.94,0,0,1,890.34,81l-.65.77a4.08,4.08,0,0,0-2.84-1.27c-2.45,0-4.34,2.19-4.34,5.34s1.72,5.3,4.33,5.3a4.79,4.79,0,0,0,3.21-1.38l.57.77a5.7,5.7,0,0,1-3.83,1.59C883.69,92.09,881.35,89.78,881.35,85.81Z"/><path class="cls-5" d="M893.59,88.48V80.76h-1.87V79.9l1.9-.11.14-3.47h.93v3.47h3.48v1h-3.48v7.8c0,1.53.39,2.56,2,2.56a4.36,4.36,0,0,0,1.51-.38l.29.9a7.1,7.1,0,0,1-2,.45C894.26,92.09,893.59,90.62,893.59,88.48Z"/><path class="cls-5" d="M905,89.61l.74-.79A6.44,6.44,0,0,0,910.52,91c2.51,0,4.09-1.34,4.09-3.3s-1.34-2.71-3-3.44l-2.49-1.12c-1.44-.63-3.34-1.66-3.34-4.1s2-4,4.78-4a6.3,6.3,0,0,1,4.59,2l-.67.76a5.24,5.24,0,0,0-3.92-1.69c-2.17,0-3.63,1.16-3.63,2.94s1.64,2.65,2.85,3.18l2.49,1.11c1.84.82,3.46,1.84,3.46,4.36s-2.07,4.43-5.26,4.43A7.24,7.24,0,0,1,905,89.61Z"/><path class="cls-5" d="M918.85,88.48V80.76H917V79.9l1.9-.11.14-3.47H920v3.47h3.47v1H920v7.8c0,1.53.38,2.56,2,2.56a4.36,4.36,0,0,0,1.51-.38l.29.9a7.1,7.1,0,0,1-2,.45C919.53,92.09,918.85,90.62,918.85,88.48Z"/><path class="cls-5" d="M925.07,85.81c0-4,2.51-6.32,5.39-6.32s5.38,2.31,5.38,6.32-2.5,6.28-5.38,6.28S925.07,89.78,925.07,85.81Zm9.62,0c0-3.15-1.81-5.34-4.23-5.34s-4.23,2.19-4.23,5.34,1.81,5.3,4.23,5.3S934.69,89,934.69,85.81Z"/><path class="cls-5" d="M939.44,79.79h.93l.12,2.24h.06c.81-1.47,2-2.54,3.41-2.54a2.57,2.57,0,0,1,1.19.25l-.25,1a2.82,2.82,0,0,0-1.09-.2c-1.07,0-2.35.82-3.27,3.09v8.16h-1.1Z"/><path class="cls-5" d="M946.1,85.81c0-3.91,2.54-6.32,5.23-6.32s4.59,2,4.59,5.55a5.45,5.45,0,0,1-.06.9h-8.63c0,3,1.82,5.19,4.52,5.19A5.42,5.42,0,0,0,955,90.07l.46.84a6.6,6.6,0,0,1-3.79,1.18C948.58,92.09,946.1,89.73,946.1,85.81Zm8.78-.78c0-3.06-1.39-4.58-3.54-4.58s-3.86,1.72-4.11,4.58Z"/><path class="cls-5" d="M819.9,284.7v-5.78h1.26v5.82c0,2.36,1,3.11,2.28,3.11s2.34-.75,2.34-3.11v-5.82H827v5.78c0,3.16-1.53,4.25-3.54,4.25S819.9,287.86,819.9,284.7Z"/><path class="cls-5" d="M829.63,278.92h1.29l3.56,6.19,1.07,2h.06c-.07-1-.16-2.1-.16-3.13v-5.1h1.19v9.85h-1.3l-3.56-6.2-1.06-2h-.06c.06,1,.16,2,.16,3.07v5.16h-1.19Z"/><path class="cls-5" d="M839.33,278.92h2.46c3,0,4.65,1.76,4.65,4.89s-1.62,5-4.59,5h-2.52Zm2.37,8.82c2.3,0,3.45-1.44,3.45-3.93S844,280,841.7,280h-1.12v7.79Z"/><path class="cls-5" d="M848.56,278.92h5.67V280h-4.42v3.09h3.73v1.06h-3.73v3.58h4.57v1.06h-5.82Z"/><path class="cls-5" d="M856.46,278.92h3.09c2,0,3.44.72,3.44,2.77s-1.44,2.92-3.44,2.92h-1.84v4.16h-1.25Zm2.91,4.67c1.53,0,2.37-.62,2.37-1.9s-.84-1.75-2.37-1.75h-1.66v3.65Zm-.07.67,1-.65,3,5.16h-1.42Z"/><path class="cls-5" d="M867.29,287.49l.75-.87a3.83,3.83,0,0,0,2.71,1.23c1.3,0,2.06-.65,2.06-1.6s-.71-1.33-1.64-1.74l-1.41-.62a2.78,2.78,0,0,1-2-2.53c0-1.51,1.31-2.62,3.1-2.62a4.08,4.08,0,0,1,2.9,1.22l-.66.81a3.18,3.18,0,0,0-2.24-.93c-1.1,0-1.83.56-1.83,1.44s.85,1.3,1.63,1.63l1.4.61a2.74,2.74,0,0,1,2,2.63c0,1.55-1.29,2.8-3.36,2.8A4.74,4.74,0,0,1,867.29,287.49Z"/><path class="cls-5" d="M877.76,280h-3v-1.06H882V280h-3v8.79h-1.25Z"/><path class="cls-5" d="M882.82,283.81c0-3.15,1.73-5.07,4.21-5.07s4.2,1.92,4.2,5.07S889.5,289,887,289,882.82,287,882.82,283.81Zm7.12,0c0-2.45-1.16-4-2.91-4s-2.92,1.52-2.92,4,1.16,4,2.92,4S889.94,286.26,889.94,283.81Z"/><path class="cls-5" d="M893.35,278.92h3.09c2,0,3.44.72,3.44,2.77s-1.44,2.92-3.44,2.92h-1.83v4.16h-1.26Zm2.91,4.67c1.53,0,2.37-.62,2.37-1.9s-.84-1.75-2.37-1.75h-1.65v3.65Zm-.07.67,1-.65,3,5.16h-1.42Z"/><path class="cls-5" d="M901.89,278.92h5.68V280h-4.42v3.09h3.73v1.06h-3.73v3.58h4.57v1.06h-5.83Z"/><path class="cls-5" d="M912.05,288c2.87-2.87,4.5-4.59,4.5-6.15a1.68,1.68,0,0,0-1.81-1.86,2.78,2.78,0,0,0-2,1.14l-.71-.7a3.75,3.75,0,0,1,2.9-1.45,2.66,2.66,0,0,1,2.87,2.82c0,1.79-1.65,3.58-3.91,6,.52,0,1.12-.08,1.61-.08h2.77v1.06h-6.18Z"/><path class="cls-5" d="M821.28,133.65v-5.78h1.26v5.82c0,2.36,1,3.11,2.28,3.11s2.34-.75,2.34-3.11v-5.82h1.2v5.78c0,3.16-1.53,4.25-3.54,4.25S821.28,136.81,821.28,133.65Z"/><path class="cls-5" d="M831,127.87h1.29l3.56,6.19,1.07,2H837c-.07-1-.16-2.1-.16-3.13v-5.1H838v9.85h-1.3l-3.56-6.2-1.06-2H832c.06,1,.16,2,.16,3.08v5.15H831Z"/><path class="cls-5" d="M840.71,127.87h2.46c3,0,4.65,1.76,4.65,4.89s-1.62,5-4.59,5h-2.52Zm2.37,8.82c2.3,0,3.45-1.44,3.45-3.93s-1.15-3.86-3.45-3.86H842v7.79Z"/><path class="cls-5" d="M849.94,127.87h5.67v1.07h-4.42V132h3.73v1.06h-3.73v3.58h4.57v1.06h-5.82Z"/><path class="cls-5" d="M857.84,127.87h3.09c2,0,3.44.73,3.44,2.78s-1.44,2.91-3.44,2.91h-1.84v4.16h-1.25Zm2.91,4.67c1.53,0,2.37-.62,2.37-1.89s-.84-1.76-2.37-1.76h-1.66v3.65Zm-.07.68,1-.65,3,5.15h-1.42Z"/><path class="cls-5" d="M868.67,136.44l.75-.86a3.86,3.86,0,0,0,2.71,1.22c1.3,0,2.06-.65,2.06-1.6s-.71-1.33-1.64-1.73l-1.41-.63a2.77,2.77,0,0,1-2-2.53c0-1.51,1.31-2.62,3.1-2.62a4.08,4.08,0,0,1,2.9,1.22l-.66.81a3.17,3.17,0,0,0-2.24-.92c-1.1,0-1.83.55-1.83,1.43s.85,1.31,1.63,1.63l1.4.61a2.74,2.74,0,0,1,2,2.63c0,1.56-1.29,2.8-3.36,2.8A4.7,4.7,0,0,1,868.67,136.44Z"/><path class="cls-5" d="M879.14,128.94h-3v-1.07h7.21v1.07h-3v8.78h-1.25Z"/><path class="cls-5" d="M884.2,132.76c0-3.15,1.73-5.07,4.21-5.07s4.2,1.92,4.2,5.07-1.73,5.14-4.2,5.14S884.2,135.91,884.2,132.76Zm7.12,0c0-2.45-1.16-4-2.91-4s-2.92,1.51-2.92,4,1.16,4,2.92,4S891.32,135.21,891.32,132.76Z"/><path class="cls-5" d="M894.73,127.87h3.09c2,0,3.44.73,3.44,2.78s-1.44,2.91-3.44,2.91H896v4.16h-1.26Zm2.91,4.67c1.53,0,2.37-.62,2.37-1.89s-.84-1.76-2.37-1.76H896v3.65Zm-.07.68,1-.65,3,5.15h-1.42Z"/><path class="cls-5" d="M903.27,127.87H909v1.07h-4.42V132h3.73v1.06h-3.73v3.58h4.57v1.06h-5.83Z"/><path class="cls-5" d="M914,136.69h2.19v-7h-1.74v-.8a5.66,5.66,0,0,0,2-.7h1v8.54h2v1H914Z"/><path class="cls-5" d="M696.45,31.75h1.66l1.34,6.91c.24,1.37.5,2.73.74,4.1h.08c.28-1.37.58-2.74.89-4.1l1.76-6.91h1.47l1.76,6.91c.31,1.34.61,2.72.92,4.1h.07c.25-1.38.48-2.75.72-4.1l1.34-6.91h1.55l-2.62,12.7h-2l-1.92-7.64c-.22-1-.42-1.91-.61-2.89h-.08c-.19,1-.41,1.9-.63,2.89l-1.88,7.64h-1.92Z"/><path class="cls-5" d="M715.57,31.75h1.82l4.3,12.7H720l-2.21-7.1c-.46-1.41-.86-2.81-1.27-4.27h-.08c-.39,1.47-.8,2.86-1.25,4.27l-2.24,7.1h-1.65Zm-2,7.54h5.85v1.29h-5.85Z"/><path class="cls-5" d="M723.4,31.75h1.67l4.59,8L731,42.36h.08c-.08-1.28-.2-2.71-.2-4V31.75h1.53v12.7h-1.67l-4.59-8-1.38-2.63h-.07c.08,1.29.2,2.64.2,4v6.65H723.4Z"/><line class="cls-11" x1="400.28" y1="86.56" x2="459.85" y2="75.58"/><path class="cls-12" d="M392.47,88a39.69,39.69,0,0,1,12.2,4.12l-3.36-5.75,1.09-6.57A39.71,39.71,0,0,1,392.47,88Z"/><polygon class="cls-12" points="469 73.89 457.08 81.54 459.17 75.71 455.14 71 469 73.89"/><line class="cls-13" x1="194.88" y1="87.89" x2="254.7" y2="87.89"/><path class="cls-12" d="M186.93,87.89a39.89,39.89,0,0,1,11.26,6.27l-2.27-6.27,2.27-6.26A39.62,39.62,0,0,1,186.93,87.89Z"/><polygon class="cls-12" points="264 87.89 250.9 93.25 254.01 87.89 250.9 82.54 264 87.89"/><line class="cls-11" x1="400.28" y1="246.56" x2="459.85" y2="235.58"/><path class="cls-12" d="M392.47,248a39.69,39.69,0,0,1,12.2,4.12l-3.36-5.75,1.09-6.57A39.71,39.71,0,0,1,392.47,248Z"/><polygon class="cls-12" points="469 233.9 457.08 241.54 459.17 235.71 455.14 231 469 233.9"/><line class="cls-13" x1="194.88" y1="247.89" x2="254.7" y2="247.89"/><path class="cls-12" d="M186.93,247.89a39.89,39.89,0,0,1,11.26,6.27l-2.27-6.27,2.27-6.26A39.62,39.62,0,0,1,186.93,247.89Z"/><polygon class="cls-12" points="264 247.9 250.9 253.25 254.01 247.9 250.9 242.54 264 247.9"/><path class="cls-4" d="M965.57,205.67H779.25v47.82h.89a1.34,1.34,0,0,0-.5.95c0,5.07,41.57,9.17,92.84,9.17s92.83-4.1,92.83-9.17a1.34,1.34,0,0,0-.5-.95h.76Z"/><ellipse class="cls-4" cx="872.48" cy="204.44" rx="92.83" ry="9.17"/><path class="cls-5" d="M874.09,226.72h1.15v7.21H884v-7.21h1.15v16.46H884v-8.24h-8.8v8.24h-1.15Z"/><path class="cls-5" d="M890,226.72h3.8c5.09,0,7.49,3.2,7.49,8.18s-2.4,8.28-7.46,8.28H890Zm3.69,15.49c4.46,0,6.4-3,6.4-7.31s-1.94-7.21-6.4-7.21h-2.54v14.52Z"/><path class="cls-5" d="M905.12,226.72h9v1h-7.83v6.56h6.61v1h-6.61v7.92h-1.15Z"/><path class="cls-5" d="M915.36,241l.74-.79a6.45,6.45,0,0,0,4.83,2.23c2.51,0,4.1-1.35,4.1-3.31s-1.35-2.71-3-3.44l-2.49-1.12c-1.44-.63-3.34-1.65-3.34-4.09s2-4.06,4.78-4.06a6.28,6.28,0,0,1,4.59,2l-.66.77a5.25,5.25,0,0,0-3.93-1.7c-2.17,0-3.63,1.17-3.63,2.95s1.65,2.64,2.85,3.17l2.49,1.11c1.84.83,3.46,1.84,3.46,4.36s-2.07,4.43-5.26,4.43A7.24,7.24,0,0,1,915.36,241Z"/><rect class="cls-7" x="799.97" y="205.65" width="57" height="18.5"/><path class="cls-14" d="M833.4,247.48c0-.37-.18-3.66-.18-4.31a13.76,13.76,0,0,0-1-2.76.86.86,0,0,1-.07-.1c-.1-.17-.21-.33-.32-.49a26.76,26.76,0,0,1-6.48,11.12,4.83,4.83,0,0,0,1.49.41c.51,0,4.6,0,5.94-.18s1-2.39,1-2.75S833.4,247.84,833.4,247.48Z"/><path class="cls-14" d="M856,221.69c0-1.05-1.05-6.45-1.81-7.75s-2.86-1.34-2.86-1.34a2.14,2.14,0,0,0-1.3.84,7.94,7.94,0,0,1-3.29,3.17.32.32,0,0,0-.16.34c.38,1.93,1.08,6.71-.54,9.52a.59.59,0,0,1-.5.29.6.6,0,0,1-.29-.08.57.57,0,0,1-.21-.79,8.13,8.13,0,0,0,.84-3.66.71.71,0,0,1-.14-.1h0c-.25,0-1.11.42-1.72,1.94a.57.57,0,0,1-.54.37.52.52,0,0,1-.21,0,.57.57,0,0,1-.32-.75,5.14,5.14,0,0,1,1.34-2c-.89,0-2.08.18-2.48.89a.59.59,0,0,1-.5.29.6.6,0,0,1-.29-.08.58.58,0,0,1-.22-.79c1-1.79,4.09-1.46,4.43-1.42a.56.56,0,0,1,.49.46h.17a25.37,25.37,0,0,0-.44-3.76h0a6.26,6.26,0,0,0-2.45.22l-.12,0a.58.58,0,0,1-.12-1.15,7.71,7.71,0,0,1,2.89-.22,1.72,1.72,0,0,1,.32-.34c-.48-1.27-1.63-3.44-2.27-3.81s-2.06-1.45-3.66-2.61-1.82-1.66-3.74-3a9.87,9.87,0,0,0-6.23-1.77c-2.42,0-7.93,1.74-9.89,3.33a24.34,24.34,0,0,0-2.95,3.47,2,2,0,0,1-.16.43,7.89,7.89,0,0,1,1.15.13.57.57,0,0,1,.47.67.59.59,0,0,1-.67.47,8.3,8.3,0,0,0-2.21-.08l-.6.38-.62.39c-2,1.27-6.68,8.16-7.61,9.76-.45.78-1.8,3.12-1.49,3.65s2,2.94,3,4.33a29.54,29.54,0,0,1,1.89-2.72c.39-.53.81-1.08,1.23-1.69a.59.59,0,0,1,.81-.14.58.58,0,0,1,.14.81c-.43.62-.85,1.18-1.26,1.72a14.94,14.94,0,0,0-3.07,5.64c.22.6,1.11,2.82,2.77,2.82,1.48,0,5.61-1.7,8.08-2.71a17.52,17.52,0,0,1,2.5-1,8.16,8.16,0,0,0,1.46-3.36,11.14,11.14,0,0,0-.37-1.68,19.2,19.2,0,0,1-.88-6.12.57.57,0,0,1,.63-.52.58.58,0,0,1,.53.63,18,18,0,0,0,.84,5.72,9.76,9.76,0,0,1,.41,2c0,.91-1.33,4.51-2.49,4.51-.15,0-1.19.46-2.19.87-3.59,1.47-6.94,2.8-8.52,2.8-2.76,0-3.88-3.63-3.92-3.79a.61.61,0,0,1,0-.3,12.36,12.36,0,0,1,.85-2.41.47.47,0,0,1-.15-.13c-.12-.16-2.82-3.89-3.3-4.72-.6-1,.32-2.78,1.48-4.79a77.63,77.63,0,0,1,5.39-7.56c-12,.79-14.3,7.63-15.22,9.24a19.62,19.62,0,0,0-2.24,1.84c-.92.92-.63-.36-.63-.36.75-.43.45-2.14.45-2.14l1.08.62s0-2.53-.58-2.86l.76-1.85c-.55-.31-4.78,2.43-5.11,4.13a4.42,4.42,0,0,0,.85,3.2c.25,3.05,3.53,2.38,3.53,2.38a15.19,15.19,0,0,0-.15,4.82.6.6,0,0,1,.14.26c.62,3,2.71,7.94,4.39,9.61a.59.59,0,0,1,0,.82.6.6,0,0,1-.41.17.58.58,0,0,1-.41-.17c-1.43-1.43-2.92-4.58-3.87-7.3-.12.48-.23.91-.23,1s-3.19,2.93-3.19,2.93c0,4.17,3.37,6.08,4.64,6.81a6.54,6.54,0,0,0,2.89.72,5.73,5.73,0,0,0-.88,2.8c.61,2.07,4.76,2.75,7.44,3.07s2.12,0,2.93-.51.84-3.62.84-3.62,1-2.18,1.26-2.64a1.49,1.49,0,0,0,.16-.48.54.54,0,0,1-.11-.39,4,4,0,0,0-1-3.22,8.4,8.4,0,0,1-.57-.85.58.58,0,1,1,1-.58c.15.25.32.49.5.75a5.19,5.19,0,0,1,1.19,2.75l1.82,0a23.11,23.11,0,0,1,4.24-1.15l.63-1.1a.58.58,0,0,1,1,.58l-.78,1.34a.57.57,0,0,1-.42.28,22.09,22.09,0,0,0-4.55,1.24l-.09,0a3.35,3.35,0,0,0-.31,1.48c0,1.55.88,3.36,3.08,5.54s3.51,1.12,4.52.9,1.87-2.16,2.14-2.31l.2-.16a.53.53,0,0,1,.11-.34c.6-.81,1.27-1.56,2-2.36a25.65,25.65,0,0,0,6.51-11.43,13.83,13.83,0,0,0-1.5-1.08,11,11,0,0,1-1.73-1.32.57.57,0,0,1,0-.82.56.56,0,0,1,.81,0,9.76,9.76,0,0,0,1.56,1.17,8.94,8.94,0,0,1,3.1,2.94.55.55,0,0,1,.07.28,5.65,5.65,0,0,0,5.07,1.27c2.15-.47,3.26-2.77,3.71-4a17.13,17.13,0,0,1-1.9-.89,3.09,3.09,0,0,1-2.2,2.68c-.68,0-.85-.52-.59-1.57a4.41,4.41,0,0,0,.26-2.68l.06,0a.36.36,0,0,1,0-.32.4.4,0,0,1,.55-.15l.46.27a25.66,25.66,0,0,0,3.7,1.92c4,.79,10.1-.53,11.89-4.65S856,222.74,856,221.69Zm-12.16-4.11s1-.45,1.33,0,.33,1-.17.91-.58-.11-.79-.13A.67.67,0,0,1,843.8,217.58Zm-13.31,2.84a.59.59,0,0,1-.49.27.53.53,0,0,1-.3-.09.57.57,0,0,1-.21-.77c.09-.14.89-1.4,4.09-2.44a.57.57,0,0,1,.73.37.58.58,0,0,1-.37.73C831.18,219.39,830.5,220.41,830.49,220.42Zm3.8,0c-.35.2-.64.44-1.28.86-.82.54-1.43-.18-1.43-1S834,219,834,219A.84.84,0,0,1,834.29,220.38Zm18-5.46c-.7,1.21-3,3.29-4.12,3.29a.58.58,0,0,1,0-1.16,7.65,7.65,0,0,0,3.12-2.71.58.58,0,0,1,1,.58Z"/><line class="cls-15" x1="236.01" y1="392.28" x2="233.7" y2="394.19"/><line class="cls-16" x1="228.24" y1="398.7" x2="209.16" y2="414.45"/><line class="cls-15" x1="206.43" y1="416.71" x2="204.12" y2="418.62"/><polygon class="cls-17" points="231.71 389.37 241.54 387.71 238.06 397.06 231.71 389.37"/><polygon class="cls-17" points="202.07 413.84 198.59 423.18 208.42 421.53 202.07 413.84"/><line class="cls-15" x1="236.01" y1="461.62" x2="233.7" y2="459.71"/><line class="cls-16" x1="228.24" y1="455.2" x2="209.16" y2="439.44"/><line class="cls-15" x1="206.43" y1="437.19" x2="204.12" y2="435.28"/><polygon class="cls-17" points="238.06 456.84 241.54 466.18 231.71 464.53 238.06 456.84"/><polygon class="cls-17" points="208.42 432.37 198.59 430.71 202.07 440.06 208.42 432.37"/><line class="cls-15" x1="462.72" y1="248.38" x2="461.35" y2="251.05"/><line class="cls-18" x1="458.46" y1="256.68" x2="419.41" y2="332.71"/><line class="cls-15" x1="417.96" y1="335.52" x2="416.59" y2="338.19"/><polygon class="cls-17" points="457.62 247.4 466 242 466.49 251.96 457.62 247.4"/><polygon class="cls-17" points="412.82 334.62 413.31 344.58 421.69 339.17 412.82 334.62"/><line class="cls-15" x1="467.51" y1="88.02" x2="466.89" y2="90.95"/><line class="cls-19" x1="465.63" y1="96.91" x2="415.74" y2="332.07"/><line class="cls-15" x1="415.11" y1="335.05" x2="414.49" y2="337.98"/><polygon class="cls-17" points="462.33 88.41 469 81 472.09 90.48 462.33 88.41"/><polygon class="cls-17" points="409.91 335.52 413 345 419.67 337.59 409.91 335.52"/><line class="cls-20" x1="766.71" y1="213.31" x2="655.01" y2="93.3"/><path class="cls-12" d="M772,219a39,39,0,0,1-3-12.22l-3,5.79-6,2.55A38.93,38.93,0,0,1,772,219Z"/><polygon class="cls-12" points="648.82 86.64 661.37 92.45 655.47 93.79 653.71 99.58 648.82 86.64"/><line class="cls-20" x1="654.11" y1="213.31" x2="765.81" y2="93.3"/><path class="cls-12" d="M648.82,219a38.93,38.93,0,0,1,12-3.88l-6-2.55-3-5.79A39,39,0,0,1,648.82,219Z"/><polygon class="cls-12" points="772 86.64 767.11 99.58 765.35 93.79 759.45 92.45 772 86.64"/><line class="cls-20" x1="645.77" y1="227.89" x2="774.91" y2="227.89"/><path class="cls-12" d="M638,227.89A39.06,39.06,0,0,1,649,234l-2.21-6.12,2.21-6.11A38.79,38.79,0,0,1,638,227.89Z"/><polygon class="cls-12" points="784 227.9 771.2 233.13 774.24 227.9 771.2 222.66 784 227.9"/><line class="cls-20" x1="645.77" y1="77" x2="774.91" y2="77"/><path class="cls-12" d="M638,77a39.06,39.06,0,0,1,11,6.12L646.79,77,649,70.88A38.82,38.82,0,0,1,638,77Z"/><polygon class="cls-12" points="784 77 771.2 82.23 774.24 77 771.2 71.77 784 77"/><line class="cls-15" x1="334.07" y1="292.78" x2="334.07" y2="295.78"/><line class="cls-21" x1="334.07" y1="302.25" x2="334.07" y2="337.88"/><line class="cls-15" x1="334.07" y1="341.12" x2="334.07" y2="344.12"/><polygon class="cls-17" points="329.08 294.24 334.07 285.6 339.05 294.24 329.08 294.24"/><polygon class="cls-17" points="329.08 342.66 334.07 351.3 339.05 342.66 329.08 342.66"/><line class="cls-15" x1="334.07" y1="132.78" x2="334.07" y2="135.78"/><line class="cls-22" x1="334.07" y1="141.4" x2="334.07" y2="206.01"/><line class="cls-15" x1="334.07" y1="208.82" x2="334.07" y2="211.82"/><polygon class="cls-17" points="329.08 134.24 334.07 125.6 339.05 134.24 329.08 134.24"/><polygon class="cls-17" points="329.08 210.37 334.07 219 339.05 210.37 329.08 210.37"/><ellipse class="cls-14" cx="809.34" cy="72.29" rx="12.5" ry="2.5"/><path class="cls-14" d="M821.11,66.81a62,62,0,0,0-24.27,0C792,67.94,791,69.49,791,70.58c0,0,0,.09,0,.14l1.33,10.74,2.64-.72-1.26-10.2c.16-.88,5.34-2.83,15.23-2.83s15.08,2,15.24,2.83L820.6,99.75a.61.61,0,0,0,0,.14c-.21.54-4.1,2-11.62,2s-11.4-1.47-11.61-2a.45.45,0,0,0,0-.12l-1.87-15.13-2.64.71L794.65,100c.14,2.77,7.49,4,14.32,4s14.19-1.26,14.33-4l3.61-29.25a.68.68,0,0,0,0-.14C826.93,69.49,825.92,67.94,821.11,66.81Z"/><ellipse class="cls-14" cx="808.97" cy="78.73" rx="1.72" ry="1.33"/><path class="cls-14" d="M793.57,84.17c2.88-.63,15.74-4.42,15.87-4.46l-.93-2c-.13,0-13,3.69-15.83,4.44-.63.17-1.39.31-1.53.08s0-.3.7-.54l-.42-2c-3.62,1.22-3.34,2.69-3,3.27C788.83,83.89,790.06,84.93,793.57,84.17Z"/><rect class="cls-14" x="801.26" y="92.39" width="6.25" height="6.25"/><rect class="cls-14" x="809.41" y="92.39" width="6.25" height="6.25"/><rect class="cls-14" x="805.34" y="84.43" width="6.25" height="6.25"/></svg>